# xmcd
#
# Track frame offsets: 
#        150
#        10894
#        23012
#        36144
#        49957
#        63819
#        77131
#        91207
#        103336
#        118632
#        133994
#        148481
#        165739
#        177001
#        188751
#        200300
#        216069
#        227544
#        242397
#        255670
#
# Disc length: 3595 seconds
#
# Revision: 0
# Processed by: cddbd v1.5.2PL0 Copyright (c) Steve Scherf et al.
# Submitted via: ExactAudioCopy v0.99pb5
#
DISCID=100e0914
DTITLE=Otis Redding  - 100 Hits Legends - 5 CD Boxset - CD 3
DYEAR=1900
DGENRE=
TTITLE0=Hard To Handle
TTITLE1=Shake
TTITLE2=Knock On Wood
TTITLE3=Tramp
TTITLE4=Chain Gang
TTITLE5=I'm Sick Y'all
TTITLE6=It Takes Two
TTITLE7=Scratch My Back
TTITLE8=Everybody Makes A Mistake
TTITLE9=New Years Resolution
TTITLE10=Are You Lonely For Me, Baby?
TTITLE11=Good To Me
TTITLE12=Sweet Lorene
TTITLE13=Ooh Carla, Ooh Otis
TTITLE14=Any Ole Way
TTITLE15=Hawg For You
TTITLE16=Love Have Mercy
TTITLE17=Tell It Like It Is
TTITLE18=Tennessee Waltz
TTITLE19=Amen
EXTD=
EXTT0=
EXTT1=
EXTT2=
EXTT3=
EXTT4=
EXTT5=
EXTT6=
EXTT7=
EXTT8=
EXTT9=
EXTT10=
EXTT11=
EXTT12=
EXTT13=
EXTT14=
EXTT15=
EXTT16=
EXTT17=
EXTT18=
EXTT19=
PLAYORDER=
